<svg width="20" height="20" viewBox="0 0 20 20" fill="none" xmlns="http://www.w3.org/2000/svg">
<path d="M18.8958 -0.00012207H1.10417C0.494167 -0.00012207 0 0.494045 0 1.10404V18.8965C0 19.5057 0.494167 19.9999 1.10417 19.9999H10.6833V12.2549H8.07667V9.23654H10.6833V7.01071C10.6833 4.42738 12.2608 3.02071 14.5658 3.02071C15.67 3.02071 16.6183 3.10321 16.895 3.13988V5.83988L15.2967 5.84071C14.0433 5.84071 13.8008 6.43654 13.8008 7.30988V9.23738H16.79L16.4008 12.2557H13.8008V19.9999H18.8975C19.5058 19.9999 20 19.5057 20 18.8957V1.10404C20 0.494045 19.5058 -0.00012207 18.8958 -0.00012207Z" fill="#24053E"/>
</svg>
